<?xml version="1.0" encoding="utf-8"?>
<!-- Generator: Adobe Illustrator 17.0.0, SVG Export Plug-In . SVG Version: 6.00 Build 0)  -->
<svg version="1.2" baseProfile="tiny" xmlns="http://www.w3.org/2000/svg" xmlns:xlink="http://www.w3.org/1999/xlink" x="0px"
	 y="0px" width="572.971px" height="566.929px" viewBox="0 0 572.971 566.929" xml:space="preserve">
<g id="BG">
	<text transform="matrix(1 0 0 1 -103.6043 12)" font-family="'MyriadPro-Regular'" font-size="12"> </text>
	<text transform="matrix(1 0 0 1 -101.0604 12)" font-family="'MyriadPro-Regular'" font-size="12"> </text>
	<text transform="matrix(1 0 0 1 -98.5164 12)" font-family="'MyriadPro-Regular'" font-size="12"> </text>
	<text transform="matrix(1 0 0 1 -95.9725 12)" font-family="'MyriadPro-Regular'" font-size="12"> </text>
	<text transform="matrix(1 0 0 1 -93.4285 12)" font-family="'MyriadPro-Regular'" font-size="12">m</text>
	<text transform="matrix(1 0 0 1 -83.4207 12)" font-family="'MyriadPro-Regular'" font-size="12">a</text>
	<text transform="matrix(1 0 0 1 -77.6365 12)" font-family="'MyriadPro-Regular'" font-size="12">r</text>
	<text transform="matrix(1 0 0 1 -73.8084 12)" font-family="'MyriadPro-Regular'" font-size="12">g</text>
	<text transform="matrix(1 0 0 1 -67.1727 12)" font-family="'MyriadPro-Regular'" font-size="12">i</text>
	<text transform="matrix(1 0 0 1 -64.3651 12)" font-family="'MyriadPro-Regular'" font-size="12">n</text>
	<text transform="matrix(1 0 0 1 -57.7049 12)" font-family="'MyriadPro-Regular'" font-size="12">:</text>
	<text transform="matrix(1 0 0 1 -55.2215 12)" font-family="'MyriadPro-Regular'" font-size="12"> </text>
	<text transform="matrix(1 0 0 1 -52.6776 12)" font-family="'MyriadPro-Regular'" font-size="12">0</text>
	<text transform="matrix(1 0 0 1 -46.5213 12)" font-family="'MyriadPro-Regular'" font-size="12"> </text>
	<text transform="matrix(1 0 0 1 -43.9774 12)" font-family="'MyriadPro-Regular'" font-size="12">a</text>
	<text transform="matrix(1 0 0 1 -38.1942 12)" font-family="'MyriadPro-Regular'" font-size="12">u</text>
	<text transform="matrix(1 0 0 1 -31.5819 12)" font-family="'MyriadPro-Regular'" font-size="12">t</text>
	<text transform="matrix(1 0 0 1 -27.6815 12)" font-family="'MyriadPro-Regular'" font-size="12">o</text>
	<text transform="matrix(1 0 0 1 -21.0936 12)" font-family="'MyriadPro-Regular'" font-size="12">;</text>
	<g>
		<path fill="#0081C9" d="M556.142,270.206c-2.211-47.874-15.659-91.517-40.33-130.931c-24.688-39.396-57.282-70.714-97.784-93.917
			c-40.519-23.203-84.715-34.805-132.588-34.805c-34.864,0-67.876,6.189-99.06,18.5c34.245,20.034,58.911,54.637,65.473,95.324
			c10.525-2.213,21.35-3.334,32.482-3.334c29.453,0,56.523,7.182,81.211,21.545c24.67,14.365,44.369,33.89,59.112,58.561
			c14.726,24.687,22.098,51.758,22.098,81.209c0,29.471-7.182,56.73-21.546,81.764c-14.364,25.05-33.89,44.938-58.56,59.664
			c-24.688,14.743-51.758,22.098-81.211,22.098c-29.47,0-56.54-7.355-81.21-22.098c-24.688-14.726-44.387-34.424-59.112-59.112
			c-14.744-24.669-22.098-51.74-22.098-81.211c0-0.636,0.023-1.264,0.03-1.897c-1.665,0.061-3.328,0.127-5.007,0.127
			c-40.419,0-76.683-17.708-101.521-45.766c-2.642,15.43-3.992,31.27-3.992,47.537c0,49.36,12.154,95.022,36.462,137.009
			s57.454,75.133,99.441,99.441c41.986,24.308,87.65,36.463,137.008,36.463c28.728,0,58.56-6.992,89.498-20.993
			c30.937-13.984,53.76-31.3,68.503-51.93c1.468-1.468,2.763-1.831,3.868-1.105c1.105,0.742,1.657,1.847,1.657,3.314l1.105,48.616
			c0.725,5.905,3.314,11.05,7.734,15.469c4.42,4.419,9.202,6.629,14.365,6.629h58.56c6.629,0,12.153-2.21,16.573-6.629
			c4.419-4.419,6.629-9.564,6.629-15.469c0.725-7.355,1.831-25.034,3.315-53.035c1.467-27.985,2.21-60.39,2.21-97.231
			C559.456,348.653,558.351,310.725,556.142,270.206z"/>
		<path fill="#0081C9" d="M131.708,58.193c-34.153,23.308-61.736,52.903-82.717,88.815c-5.551,9.506-10.437,19.224-14.72,29.134
			c12.317,34.367,45.167,58.957,83.771,58.957c4.267,0,8.458-0.319,12.565-0.9c3.575-11.055,8.398-21.708,14.511-31.944
			c14.726-24.671,34.425-44.369,59.112-59.112c0.887-0.529,1.781-1.028,2.673-1.538C204.78,99.154,172.907,64.544,131.708,58.193z"
			/>
	</g>
</g>
<g id="graphics">
</g>
</svg>
